<?xml version="1.0" encoding="UTF-8" standalone="no"?>
<!-- Created with Inkscape (http://www.inkscape.org/) -->

<svg
   width="210mm"
   height="297mm"
   viewBox="0 0 210 297"
   version="1.1"
   id="svg5"
   inkscape:version="1.1.2 (b8e25be833, 2022-02-05)"
   sodipodi:docname="avatar_nero.svg"
   xmlns:inkscape="http://www.inkscape.org/namespaces/inkscape"
   xmlns:sodipodi="http://sodipodi.sourceforge.net/DTD/sodipodi-0.dtd"
   xmlns="http://www.w3.org/2000/svg"
   xmlns:svg="http://www.w3.org/2000/svg">
  <sodipodi:namedview
     id="namedview7"
     pagecolor="#ffffff"
     bordercolor="#666666"
     borderopacity="1.0"
     inkscape:pageshadow="2"
     inkscape:pageopacity="0.0"
     inkscape:pagecheckerboard="0"
     inkscape:document-units="mm"
     showgrid="false"
     inkscape:zoom="2.9611953"
     inkscape:cx="431.41363"
     inkscape:cy="201.94548"
     inkscape:window-width="1920"
     inkscape:window-height="1017"
     inkscape:window-x="-8"
     inkscape:window-y="-8"
     inkscape:window-maximized="1"
     inkscape:current-layer="layer1" />
  <defs
     id="defs2" />
  <g
     inkscape:label="Livello 1"
     inkscape:groupmode="layer"
     id="layer1">
    <g
       id="g202"
       transform="matrix(0.26458333,0,0,0.26458333,66.525168,31.616837)">
      <g
         id="g20">
	<g
   id="g18">
		<linearGradient
   id="SVGID_1_"
   gradientUnits="userSpaceOnUse"
   x1="39.455502"
   y1="6.7715998"
   x2="39.455502"
   y2="85.180099">
			<stop
   offset="0"
   style="stop-color:#01EB9F"
   id="stop11" />

			<stop
   offset="1"
   style="stop-color:#0799F4"
   id="stop13" />

		</linearGradient>

		<path
   class="st0"
   d="m 5.2,26.4 h 4.9 v -9.8 h 68.6 c 0,-5.4 -4.4,-9.8 -9.8,-9.8 H 0.3 v 14.7 c 0,2.7 2.1,4.9 4.9,4.9 z m 63.7,9.8 H 0.3 v 39.2 c 0,5.4 4.4,9.8 9.8,9.8 H 78.7 V 46 c 0,-5.4 -4.4,-9.8 -9.8,-9.8 z m 0,39.2 H 15 c -2.7,0 -4.9,-2.2 -4.9,-4.9 V 46 H 64 c 2.7,0 4.9,2.2 4.9,4.9 z"
   id="path16" />

	</g>

</g>
      <g
         id="g34">
	<path
   class="st1"
   d="m 128.2,6.4 v 29.5 h -3.8 v -5.8 c -1.2,2 -2.8,3.5 -4.7,4.5 -2,1 -4.2,1.6 -6.6,1.6 -2.8,0 -5.3,-0.6 -7.5,-1.9 -2.2,-1.3 -4,-3 -5.3,-5.3 -1.3,-2.3 -1.9,-4.9 -1.9,-7.8 0,-2.9 0.6,-5.5 1.9,-7.8 1.3,-2.3 3,-4 5.3,-5.3 2.2,-1.3 4.7,-1.9 7.5,-1.9 2.4,0 4.5,0.5 6.5,1.5 1.9,1 3.5,2.4 4.7,4.3 V 6.4 Z M 119,31.2 c 1.7,-1 3,-2.3 3.9,-4.1 1,-1.8 1.4,-3.8 1.4,-6 0,-2.2 -0.5,-4.2 -1.4,-6 -1,-1.8 -2.3,-3.1 -3.9,-4.1 -1.7,-1 -3.5,-1.4 -5.6,-1.4 -2.1,0 -4,0.5 -5.6,1.4 -1.7,1 -3,2.3 -3.9,4.1 -1,1.8 -1.4,3.8 -1.4,6 0,2.2 0.5,4.2 1.4,6 1,1.8 2.3,3.1 3.9,4.1 1.7,1 3.5,1.4 5.6,1.4 2,0 3.9,-0.4 5.6,-1.4 z"
   id="path22"
   style="fill:#000000" />

	<path
   class="st1"
   d="M 164.1,6.4 151,35.9 h -4.1 l -13,-29.5 h 4.1 l 11,25.1 11.1,-25.1 z"
   id="path24"
   style="fill:#000000" />

	<path
   class="st1"
   d="m 195.7,6.4 v 29.5 h -3.8 v -5.8 c -1.2,2 -2.8,3.5 -4.7,4.5 -2,1 -4.2,1.6 -6.6,1.6 -2.8,0 -5.3,-0.6 -7.5,-1.9 -2.2,-1.3 -4,-3 -5.3,-5.3 -1.3,-2.3 -1.9,-4.9 -1.9,-7.8 0,-2.9 0.6,-5.5 1.9,-7.8 1.3,-2.3 3,-4 5.3,-5.3 2.2,-1.3 4.7,-1.9 7.5,-1.9 2.4,0 4.5,0.5 6.5,1.5 1.9,1 3.5,2.4 4.7,4.3 V 6.4 Z m -9.3,24.8 c 1.7,-1 3,-2.3 3.9,-4.1 1,-1.8 1.4,-3.8 1.4,-6 0,-2.2 -0.5,-4.2 -1.4,-6 -1,-1.8 -2.3,-3.1 -3.9,-4.1 -1.7,-1 -3.5,-1.4 -5.6,-1.4 -2.1,0 -4,0.5 -5.6,1.4 -1.7,1 -3,2.3 -3.9,4.1 -1,1.8 -1.4,3.8 -1.4,6 0,2.2 0.5,4.2 1.4,6 1,1.8 2.3,3.1 3.9,4.1 1.6,1 3.5,1.4 5.6,1.4 2.1,0 4,-0.4 5.6,-1.4 z"
   id="path26"
   style="fill:#000000" />

	<path
   class="st1"
   d="m 221.3,34.1 c -0.7,0.7 -1.7,1.2 -2.7,1.5 -1.1,0.4 -2.2,0.5 -3.4,0.5 -2.8,0 -4.9,-0.7 -6.4,-2.2 -1.5,-1.5 -2.2,-3.6 -2.2,-6.3 V 0 h 4 v 6.4 h 8.9 v 3.4 h -8.9 v 17.6 c 0,1.8 0.4,3.1 1.3,4 0.9,0.9 2.1,1.4 3.8,1.4 1.8,0 3.2,-0.5 4.4,-1.5 z"
   id="path28"
   style="fill:#000000" />

	<path
   class="st1"
   d="m 254.3,6.4 v 29.5 h -3.8 v -5.8 c -1.2,2 -2.8,3.5 -4.7,4.5 -2,1 -4.2,1.6 -6.6,1.6 -2.8,0 -5.3,-0.6 -7.5,-1.9 -2.2,-1.3 -4,-3 -5.3,-5.3 -1.3,-2.3 -1.9,-4.9 -1.9,-7.8 0,-2.9 0.6,-5.5 1.9,-7.8 1.3,-2.3 3,-4 5.3,-5.3 2.3,-1.3 4.7,-1.9 7.5,-1.9 2.4,0 4.5,0.5 6.5,1.5 1.9,1 3.5,2.4 4.7,4.3 V 6.4 Z m -9.2,24.8 c 1.7,-1 3,-2.3 3.9,-4.1 0.9,-1.8 1.4,-3.8 1.4,-6 0,-2.2 -0.5,-4.2 -1.4,-6 -1,-1.8 -2.3,-3.1 -3.9,-4.1 -1.7,-1 -3.5,-1.4 -5.6,-1.4 -2.1,0 -4,0.5 -5.6,1.4 -1.7,1 -3,2.3 -3.9,4.1 -1,1.8 -1.4,3.8 -1.4,6 0,2.2 0.5,4.2 1.4,6 1,1.8 2.3,3.1 3.9,4.1 1.7,1 3.5,1.4 5.6,1.4 2,0 3.9,-0.4 5.6,-1.4 z"
   id="path30"
   style="fill:#000000" />

	<path
   class="st1"
   d="m 273.4,7.7 c 1.8,-1 4.1,-1.5 6.9,-1.5 v 3.9 l -1,-0.1 c -3.1,0 -5.5,1 -7.3,2.9 -1.8,1.9 -2.6,4.6 -2.6,8 v 15 h -4 V 6.4 h 3.8 v 5.8 c 1,-2 2.3,-3.5 4.2,-4.5 z"
   id="path32"
   style="fill:#000000" />

</g>
      <g
         id="g132">
	<path
   class="st1"
   d="M 103.2,52.5 H 99.9 L 99.1,55 h -0.7 l 2.8,-8.9 h 0.6 l 2.8,8.9 H 104 Z m -3.1,-0.6 h 2.9 l -1.5,-4.8 z"
   id="path36"
   style="fill:#000000" />

	<path
   class="st1"
   d="m 106.7,54.4 h 3.7 V 55 H 106 v -8.9 h 0.7 z"
   id="path38"
   style="fill:#000000" />

	<path
   class="st1"
   d="m 115.3,46.8 h -2.5 V 55 H 112 v -8.2 h -2.5 v -0.7 h 5.8 z"
   id="path40"
   style="fill:#000000" />

	<path
   class="st1"
   d="m 122,51.5 c 0,1.2 -0.3,2 -0.8,2.7 -0.5,0.6 -1.2,0.9 -2.1,0.9 -0.9,0 -1.6,-0.3 -2.1,-0.9 -0.5,-0.6 -0.8,-1.5 -0.8,-2.6 v -1.9 c 0,-1.1 0.3,-2 0.8,-2.7 0.5,-0.6 1.2,-1 2.1,-1 0.9,0 1.6,0.3 2.1,1 0.5,0.6 0.8,1.5 0.8,2.7 z m -0.7,-1.9 c 0,-1 -0.2,-1.7 -0.6,-2.2 -0.4,-0.5 -0.9,-0.7 -1.6,-0.7 -0.7,0 -1.2,0.2 -1.6,0.7 -0.4,0.5 -0.6,1.2 -0.6,2.2 v 2 c 0,1 0.2,1.7 0.6,2.2 0.4,0.5 0.9,0.7 1.6,0.7 0.7,0 1.2,-0.2 1.6,-0.7 0.4,-0.5 0.6,-1.2 0.6,-2.2 z"
   id="path42"
   style="fill:#000000" />

	<path
   class="st1"
   d="m 129,53.9 v 0 0 l 2.4,-7.8 h 0.8 l -2.8,8.9 h -0.7 l -2.8,-8.9 h 0.8 z"
   id="path44"
   style="fill:#000000" />

	<path
   class="st1"
   d="m 134.3,55 h -0.7 v -8.9 h 0.7 z"
   id="path46"
   style="fill:#000000" />

	<path
   class="st1"
   d="m 141.9,52.2 c -0.1,1 -0.3,1.7 -0.8,2.2 -0.5,0.5 -1.1,0.7 -2,0.7 -0.9,0 -1.5,-0.3 -2,-1 -0.5,-0.7 -0.7,-1.5 -0.8,-2.7 v -1.9 c 0,-1.1 0.3,-2 0.8,-2.6 0.5,-0.6 1.2,-1 2.1,-1 0.8,0 1.5,0.2 1.9,0.7 0.5,0.5 0.7,1.2 0.8,2.2 h -0.7 c -0.1,-0.8 -0.3,-1.4 -0.6,-1.7 -0.3,-0.3 -0.8,-0.5 -1.4,-0.5 -0.7,0 -1.2,0.3 -1.6,0.8 -0.4,0.5 -0.6,1.2 -0.6,2.2 v 1.9 c 0,0.9 0.2,1.7 0.5,2.2 0.4,0.5 0.9,0.8 1.5,0.8 0.7,0 1.2,-0.2 1.5,-0.5 0.3,-0.3 0.5,-0.9 0.6,-1.7 h 0.8 z"
   id="path48"
   style="fill:#000000" />

	<path
   class="st1"
   d="m 147.8,50.7 h -3.5 v 3.6 h 4 V 55 h -4.7 v -8.9 h 4.6 v 0.7 h -3.9 v 3.3 h 3.5 z"
   id="path50"
   style="fill:#000000" />

	<path
   class="st1"
   d="m 155.5,55 h -0.7 l -4.2,-7.6 V 55 h -0.7 v -8.9 h 0.7 l 4.2,7.6 v -7.6 h 0.7 z"
   id="path52"
   style="fill:#000000" />

	<path
   class="st1"
   d="M 162.5,46.8 H 160 V 55 h -0.7 v -8.2 h -2.5 v -0.7 h 5.8 v 0.7 z"
   id="path54"
   style="fill:#000000" />

	<path
   class="st1"
   d="m 164.8,55 h -0.7 v -8.9 h 0.7 z"
   id="path56"
   style="fill:#000000" />

	<path
   class="st1"
   d="m 172.6,55 h -0.7 l -4.2,-7.6 V 55 H 167 v -8.9 h 0.7 l 4.2,7.6 v -7.6 h 0.7 z"
   id="path58"
   style="fill:#000000" />

	<path
   class="st1"
   d="m 180.2,51.5 c 0,1.2 -0.3,2 -0.8,2.7 -0.5,0.6 -1.2,0.9 -2.1,0.9 -0.9,0 -1.6,-0.3 -2.1,-0.9 -0.5,-0.6 -0.8,-1.5 -0.8,-2.6 v -1.9 c 0,-1.1 0.3,-2 0.8,-2.7 0.5,-0.6 1.2,-1 2.1,-1 0.9,0 1.6,0.3 2.1,1 0.5,0.6 0.8,1.5 0.8,2.7 z m -0.7,-1.9 c 0,-1 -0.2,-1.7 -0.6,-2.2 -0.4,-0.5 -0.9,-0.7 -1.6,-0.7 -0.7,0 -1.2,0.2 -1.6,0.7 -0.4,0.5 -0.6,1.2 -0.6,2.2 v 2 c 0,1 0.2,1.7 0.6,2.2 0.4,0.5 0.9,0.7 1.6,0.7 0.7,0 1.2,-0.2 1.6,-0.7 0.4,-0.5 0.6,-1.2 0.6,-2.2 z"
   id="path60"
   style="fill:#000000" />

	<path
   class="st1"
   d="M 103.2,67.6 H 99.9 L 99.1,70 h -0.7 l 2.8,-8.9 h 0.6 l 2.8,8.9 H 104 Z m -3.1,-0.7 h 2.9 l -1.5,-4.8 z"
   id="path62"
   style="fill:#000000" />

	<path
   class="st1"
   d="m 106.7,69.4 h 3.7 V 70 H 106 v -8.9 h 0.7 z"
   id="path64"
   style="fill:#000000" />

	<path
   class="st1"
   d="m 112.5,69.4 h 3.7 V 70 h -4.4 v -8.9 h 0.7 z"
   id="path66"
   style="fill:#000000" />

	<path
   class="st1"
   d="m 121.8,65.8 h -3.5 v 3.6 h 4 V 70 h -4.7 v -8.9 h 4.6 v 0.7 h -3.9 v 3.3 h 3.5 z"
   id="path68"
   style="fill:#000000" />

	<path
   class="st1"
   d="m 127.9,67.6 h -3.3 l -0.8,2.5 h -0.7 l 2.8,-8.9 h 0.6 l 2.8,8.9 h -0.7 z m -3.1,-0.7 h 2.9 l -1.5,-4.8 z"
   id="path70"
   style="fill:#000000" />

	<path
   class="st1"
   d="m 136.4,70 h -0.7 l -4.2,-7.6 V 70 h -0.7 v -8.9 h 0.7 l 4.2,7.6 v -7.6 h 0.7 z"
   id="path72"
   style="fill:#000000" />

	<path
   class="st1"
   d="m 138.8,69.4 h 4.6 V 70 H 138 v -0.6 l 4.4,-7.7 h -4.3 V 61 h 5.1 v 0.6 z"
   id="path74"
   style="fill:#000000" />

	<path
   class="st1"
   d="m 149.1,67.6 h -3.3 L 145,70 h -0.7 l 2.8,-8.9 h 0.6 l 2.8,8.9 h -0.7 z M 146,66.9 h 2.9 l -1.5,-4.8 z"
   id="path76"
   style="fill:#000000" />

	<path
   class="st1"
   d="m 159.6,61.8 h -2.5 V 70 h -0.7 v -8.2 h -2.5 v -0.7 h 5.8 v 0.7 z"
   id="path78"
   style="fill:#000000" />

	<path
   class="st1"
   d="m 165.2,65.8 h -3.5 v 3.6 h 4 V 70 H 161 v -8.9 h 4.6 v 0.7 h -3.9 v 3.3 h 3.5 z"
   id="path80"
   style="fill:#000000" />

	<path
   class="st1"
   d="M 170.1,66.3 H 168 V 70 h -0.7 v -8.9 h 2.4 c 0.8,0 1.4,0.2 1.9,0.7 0.4,0.5 0.7,1.1 0.7,1.9 0,0.6 -0.1,1.1 -0.4,1.5 -0.3,0.4 -0.7,0.7 -1.1,0.9 l 1.9,3.8 V 70 H 172 Z M 168,65.7 h 1.9 c 0.5,0 0.9,-0.2 1.3,-0.5 0.3,-0.4 0.5,-0.8 0.5,-1.4 0,-0.6 -0.2,-1.1 -0.5,-1.4 -0.3,-0.3 -0.8,-0.5 -1.4,-0.5 H 168 Z"
   id="path82"
   style="fill:#000000" />

	<path
   class="st1"
   d="m 176.9,66.3 h -2.1 V 70 h -0.7 v -8.9 h 2.4 c 0.8,0 1.4,0.2 1.9,0.7 0.4,0.5 0.7,1.1 0.7,1.9 0,0.6 -0.1,1.1 -0.4,1.5 -0.3,0.4 -0.7,0.7 -1.1,0.9 l 1.9,3.8 V 70 h -0.7 z m -2,-0.6 h 1.9 c 0.5,0 0.9,-0.2 1.3,-0.5 0.3,-0.4 0.5,-0.8 0.5,-1.4 0,-0.6 -0.2,-1.1 -0.5,-1.4 -0.3,-0.3 -0.8,-0.5 -1.4,-0.5 H 175 v 3.8 z"
   id="path84"
   style="fill:#000000" />

	<path
   class="st1"
   d="m 181.9,70 h -0.7 v -8.9 h 0.7 z"
   id="path86"
   style="fill:#000000" />

	<path
   class="st1"
   d="m 189,61.8 h -2.5 V 70 h -0.7 v -8.2 h -2.5 v -0.7 h 5.8 v 0.7 z"
   id="path88"
   style="fill:#000000" />

	<path
   class="st1"
   d="m 195.8,66.6 c 0,1.2 -0.3,2 -0.8,2.7 -0.5,0.6 -1.2,0.9 -2.1,0.9 -0.9,0 -1.6,-0.3 -2.1,-0.9 -0.5,-0.6 -0.8,-1.5 -0.8,-2.6 v -1.9 c 0,-1.1 0.3,-2 0.8,-2.7 0.5,-0.6 1.2,-1 2.1,-1 0.9,0 1.6,0.3 2.1,1 0.5,0.6 0.8,1.5 0.8,2.7 z m -0.7,-2 c 0,-1 -0.2,-1.7 -0.6,-2.2 -0.4,-0.5 -0.9,-0.7 -1.6,-0.7 -0.7,0 -1.2,0.2 -1.6,0.7 -0.4,0.5 -0.6,1.2 -0.6,2.2 v 2 c 0,1 0.2,1.7 0.6,2.2 0.4,0.5 0.9,0.7 1.6,0.7 0.7,0 1.2,-0.2 1.6,-0.7 0.4,-0.5 0.6,-1.2 0.6,-2.2 z"
   id="path90"
   style="fill:#000000" />

	<path
   class="st1"
   d="m 200.5,66.3 h -2.1 V 70 h -0.7 v -8.9 h 2.4 c 0.8,0 1.4,0.2 1.9,0.7 0.4,0.5 0.7,1.1 0.7,1.9 0,0.6 -0.1,1.1 -0.4,1.5 -0.3,0.4 -0.7,0.7 -1.1,0.9 L 203,70 v 0 h -0.7 z m -2.1,-0.6 h 1.9 c 0.5,0 0.9,-0.2 1.3,-0.5 0.3,-0.4 0.5,-0.8 0.5,-1.4 0,-0.6 -0.2,-1.1 -0.5,-1.4 -0.3,-0.3 -0.8,-0.5 -1.4,-0.5 h -1.7 v 3.8 z"
   id="path92"
   style="fill:#000000" />

	<path
   class="st1"
   d="m 205.4,70 h -0.7 v -8.9 h 0.7 z"
   id="path94"
   style="fill:#000000" />

	<path
   class="st1"
   d="m 211.8,67.6 h -3.3 l -0.8,2.5 H 207 l 2.8,-8.9 h 0.6 l 2.8,8.9 h -0.7 z m -3.1,-0.7 h 2.9 l -1.5,-4.8 z"
   id="path96"
   style="fill:#000000" />

	<path
   class="st1"
   d="M 215.3,69.4 H 219 V 70 h -4.4 v -8.9 h 0.7 z"
   id="path98"
   style="fill:#000000" />

	<path
   class="st1"
   d="m 224.6,65.8 h -3.5 v 3.6 h 4 V 70 h -4.7 v -8.9 h 4.6 v 0.7 h -3.9 v 3.3 h 3.5 z"
   id="path100"
   style="fill:#000000" />

	<path
   class="st1"
   d="m 99.9,81.5 v 3.6 h -0.7 v -8.9 h 2.6 c 0.8,0 1.4,0.2 1.9,0.7 0.5,0.5 0.7,1.1 0.7,2 0,0.8 -0.2,1.5 -0.7,1.9 -0.4,0.5 -1.1,0.7 -1.9,0.7 z m 0,-0.7 h 1.9 c 0.6,0 1,-0.2 1.4,-0.5 0.3,-0.3 0.5,-0.8 0.5,-1.4 0,-0.6 -0.2,-1.1 -0.5,-1.5 -0.3,-0.4 -0.8,-0.5 -1.3,-0.5 H 100 v 3.9 z"
   id="path102"
   style="fill:#000000" />

	<path
   class="st1"
   d="m 110.1,80.8 h -3.5 v 3.6 h 4 V 85 h -4.7 v -8.9 h 4.6 v 0.7 h -3.9 v 3.3 h 3.5 z"
   id="path104"
   style="fill:#000000" />

	<path
   class="st1"
   d="m 114.9,81.4 h -2.1 v 3.7 h -0.7 v -8.9 h 2.4 c 0.8,0 1.4,0.2 1.9,0.7 0.4,0.5 0.7,1.1 0.7,1.9 0,0.6 -0.1,1.1 -0.4,1.5 -0.3,0.4 -0.7,0.7 -1.1,0.9 l 1.9,3.8 v 0.1 h -0.7 z m -2.1,-0.7 h 1.9 c 0.5,0 0.9,-0.2 1.3,-0.5 0.3,-0.4 0.5,-0.8 0.5,-1.4 0,-0.6 -0.2,-1.1 -0.5,-1.4 -0.3,-0.3 -0.8,-0.5 -1.4,-0.5 h -1.7 v 3.8 z"
   id="path106"
   style="fill:#000000" />

	<path
   class="st1"
   d="m 125.9,82.6 h -3.3 l -0.8,2.5 h -0.7 l 2.8,-8.9 h 0.6 l 2.8,8.9 h -0.7 z m -3.1,-0.7 h 2.9 l -1.5,-4.8 z"
   id="path108"
   style="fill:#000000" />

	<path
   class="st1"
   d="m 129.1,84.4 h 4.6 V 85 h -5.4 v -0.6 l 4.4,-7.7 h -4.3 V 76 h 5.1 v 0.6 z"
   id="path110"
   style="fill:#000000" />

	<path
   class="st1"
   d="m 136.1,85.1 h -0.7 v -8.9 h 0.7 z"
   id="path112"
   style="fill:#000000" />

	<path
   class="st1"
   d="m 143.8,81.6 c 0,1.2 -0.3,2 -0.8,2.7 -0.5,0.6 -1.2,0.9 -2.1,0.9 -0.9,0 -1.6,-0.3 -2.1,-0.9 -0.5,-0.6 -0.8,-1.5 -0.8,-2.6 v -1.9 c 0,-1.1 0.3,-2 0.8,-2.7 0.5,-0.6 1.2,-1 2.1,-1 0.9,0 1.6,0.3 2.1,1 0.5,0.6 0.8,1.5 0.8,2.7 z m -0.7,-1.9 c 0,-1 -0.2,-1.7 -0.6,-2.2 -0.4,-0.5 -0.9,-0.7 -1.6,-0.7 -0.7,0 -1.2,0.2 -1.6,0.7 -0.4,0.5 -0.6,1.2 -0.6,2.2 v 2 c 0,1 0.2,1.7 0.6,2.2 0.4,0.5 0.9,0.7 1.6,0.7 0.7,0 1.2,-0.2 1.6,-0.7 0.4,-0.5 0.6,-1.2 0.6,-2.2 z"
   id="path114"
   style="fill:#000000" />

	<path
   class="st1"
   d="m 151.3,85.1 h -0.7 l -4.2,-7.6 v 7.6 h -0.7 v -8.9 h 0.7 l 4.2,7.6 v -7.6 h 0.7 z"
   id="path116"
   style="fill:#000000" />

	<path
   class="st1"
   d="m 154.2,85.1 h -0.7 v -8.9 h 0.7 z"
   id="path118"
   style="fill:#000000" />

	<path
   class="st1"
   d="m 160.4,85.1 h -1.1 v -8.9 h 1.1 z"
   id="path120"
   style="fill:#000000" />

	<path
   class="st1"
   d="M 168.2,85.1 H 167 l -3.6,-6.9 v 6.9 h -1.1 v -8.9 h 1.1 l 3.6,6.9 v -6.9 h 1.1 v 8.9 z"
   id="path122"
   style="fill:#000000" />

	<path
   class="st1"
   d="m 175.7,81.5 h -1.6 v 3.6 H 173 v -8.9 h 2.5 c 0.9,0 1.5,0.2 2,0.7 0.4,0.5 0.7,1.1 0.7,2 0,0.6 -0.1,1 -0.4,1.4 -0.2,0.4 -0.6,0.7 -1,0.9 l 1.7,3.8 v 0.1 h -1.2 z m -1.6,-1 h 1.4 c 0.5,0 0.8,-0.2 1.1,-0.5 0.3,-0.3 0.4,-0.7 0.4,-1.2 0,-1.1 -0.5,-1.7 -1.6,-1.7 h -1.3 z"
   id="path124"
   style="fill:#000000" />

	<path
   class="st1"
   d="m 183.9,81 h -3.2 v 3.2 h 3.7 v 1 h -4.8 v -8.9 h 4.7 v 1 h -3.6 V 80 h 3.2 z"
   id="path126"
   style="fill:#000000" />

	<path
   class="st1"
   d="m 191.2,77.1 h -2.3 V 85 h -1.1 v -7.9 h -2.3 v -1 h 5.8 v 1 z"
   id="path128"
   style="fill:#000000" />

	<path
   class="st1"
   d="m 196.7,81 h -3.2 v 3.2 h 3.7 v 1 h -4.8 v -8.9 h 4.7 v 1 h -3.6 V 80 h 3.2 z"
   id="path130"
   style="fill:#000000" />

</g>
    </g>
  </g>
  <style
     type="text/css"
     id="style9">
	.st0{fill:url(#SVGID_1_);}
	.st1{fill:#FFFFFF;}
</style>
</svg>
